<?xml version="1.0" standalone="no"?>
<!DOCTYPE svg PUBLIC "-//W3C//DTD SVG 20010904//EN"
 "http://www.w3.org/TR/2001/REC-SVG-20010904/DTD/svg10.dtd">
<svg version="1.0" xmlns="http://www.w3.org/2000/svg"
 width="700.000000pt" height="700.000000pt" viewBox="0 0 700.000000 700.000000"
 preserveAspectRatio="xMidYMid meet">
<metadata>
Created by potrace 1.11, written by Peter Selinger 2001-2013
</metadata>
<g transform="translate(0.000000,700.000000) scale(0.100000,-0.100000)"
fill="#000000" stroke="none">
<path d="M4522 5230 c-106 -28 -187 -75 -267 -155 -115 -115 -169 -248 -169
-418 l1 -89 -557 -278 -557 -279 -54 56 c-108 110 -235 184 -384 224 -111 29
-288 29 -400 0 -286 -75 -514 -299 -592 -581 -25 -91 -25 -329 0 -420 78 -282
306 -506 592 -581 112 -29 289 -29 400 0 148 40 252 99 368 210 l68 65 557
-278 557 -278 1 -97 c1 -166 55 -295 175 -413 177 -174 437 -216 665 -106 95
45 217 167 262 262 110 228 68 488 -106 665 -120 121 -248 175 -417 175 -146
0 -261 -43 -382 -141 l-41 -34 -556 278 -557 278 8 55 c4 30 8 98 8 150 0 52
-4 120 -8 150 l-8 55 556 278 556 278 57 -45 c113 -88 228 -129 362 -129 166
-1 301 53 415 168 140 140 199 328 164 521 -31 172 -161 339 -321 413 -135 64
-260 76 -396 41z"/>
</g>
</svg>
